HIERARCHY
ROOT Hips
{
    OFFSET 0.000000 0.000000 0.000000
    CHANNELS 6 Xposition Yposition Zposition Zrotation Xrotation Yrotation
    JOINT Spine
    {
        OFFSET -0.000000 7.236184 0.000000
        CHANNELS 3 Zrotation Xrotation Yrotation
        JOINT Spine1
        {
            OFFSET -0.000000 20.420147 0.000000
            CHANNELS 3 Zrotation Xrotation Yrotation
            JOINT Neck
            {
                OFFSET -0.000000 20.336288 1.848754
                CHANNELS 3 Zrotation Xrotation Yrotation
                JOINT Head
                {
                    OFFSET -0.000000 12.354461 -1.764923
                    CHANNELS 3 Zrotation Xrotation Yrotation
                    End Site
                    {
                        OFFSET -0.000000 22.061537 0.000000
                    }
                }
            }
            JOINT LeftShoulder
            {
                OFFSET 3.573296 18.396038 -0.314103
                CHANNELS 3 Zrotation Xrotation Yrotation
                JOINT LeftArm
                {
                    OFFSET 10.880760 0.000000 0.000000
                    CHANNELS 3 Zrotation Xrotation Yrotation
                    JOINT LeftForeArm
                    {
                        OFFSET 27.185530 0.000000 0.000000
                        CHANNELS 3 Zrotation Xrotation Yrotation
                        JOINT LeftHand
                        {
                            OFFSET 27.825975 0.000000 0.000000
                            CHANNELS 3 Zrotation Xrotation Yrotation
                            End Site
                            {
                                OFFSET 13.236923 0.000000 0.000000
                            }
                        }
                    }
                }
            }
            JOINT RightShoulder
            {
                OFFSET -3.474926 18.396038 -0.314103
                CHANNELS 3 Zrotation Xrotation Yrotation
                JOINT RightArm
                {
                    OFFSET -10.880760 0.000000 0.000000
                    CHANNELS 3 Zrotation Xrotation Yrotation
                    JOINT RightForeArm
                    {
                        OFFSET -27.185530 0.000000 0.000000
                        CHANNELS 3 Zrotation Xrotation Yrotation
                        JOINT RightHand
                        {
                            OFFSET -27.825975 0.000000 0.000000
                            CHANNELS 3 Zrotation Xrotation Yrotation
                            End Site
                            {
                                OFFSET -13.236923 0.000000 0.000000
                            }
                        }
                    }
                }
            }
        }
    }
    JOINT LeftUpLeg
    {
        OFFSET 8.824615 0.000000 0.000000
        CHANNELS 3 Zrotation Xrotation Yrotation
        JOINT LeftLeg
        {
            OFFSET -0.000000 -35.111282 0.000000
            CHANNELS 3 Zrotation Xrotation Yrotation
            JOINT LeftFoot
            {
                OFFSET -0.000000 -42.324711 0.000000
                CHANNELS 3 Zrotation Xrotation Yrotation
                JOINT LeftToeBase
                {
                    OFFSET -0.000000 -5.735999 13.236923
                    CHANNELS 3 Zrotation Xrotation Yrotation
                    End Site
                    {
                        OFFSET -0.000000 0.000000 3.529846
                    }
                }
            }
        }
    }
    JOINT RightUpLeg
    {
        OFFSET -8.824615 0.000000 0.000000
        CHANNELS 3 Zrotation Xrotation Yrotation
        JOINT RightLeg
        {
            OFFSET -0.000000 -35.111282 0.000000
            CHANNELS 3 Zrotation Xrotation Yrotation
            JOINT RightFoot
            {
                OFFSET -0.000000 -42.324711 0.000000
                CHANNELS 3 Zrotation Xrotation Yrotation
                JOINT RightToeBase
                {
                    OFFSET -0.000000 -5.735999 13.236923
                    CHANNELS 3 Zrotation Xrotation Yrotation
                    End Site
                    {
                        OFFSET -0.000000 0.000000 3.529846
                    }
                }
            }
        }
    }
}
MOTION
Frames:    10
Frame Time:    0.008333
8.636683    92.014603    104.215332    23.317837    50.757534    -98.655754    2.903027    -6.915802    1.007009    19.591721    1.753303    0.528995    5.573687    23.674442    -24.335012    33.028694    4.838193    -21.907608    12.325629    -2.114843    -12.774067    -11.351212    13.638453    -69.969482    37.691525    -11.517947    -82.226082    67.652954    9.541336    -20.593428    6.061271    12.999701    -3.168807    35.057652    3.627146    17.798454    -5.473568    -10.999222    3.213646    -18.015282    -9.913530    -5.989600    52.034950    -25.624382    18.602142    1.903080    15.891030    11.284419    2.290141    -5.540021    -13.071588    0.987975    1.094610    -1.092994    -77.891510    -39.744843    -48.431446    128.430481    73.121399    -115.513504    2.750722    -2.764929    -16.919914    1.196326    -6.287868    -1.305768
8.574893    91.979942    104.305695    23.349009    50.412296    -99.074501    2.948098    -6.895068    0.957467    19.607546    1.766929    0.474633    5.583302    23.632158    -24.278688    32.919220    4.888155    -21.874056    12.383235    -2.160676    -12.788060    -11.456695    13.406775    -70.117645    37.713196    -10.927825    -81.058990    67.598320    9.459706    -20.535973    6.074500    13.057245    -3.218091    35.158585    3.969901    17.769156    -5.487488    -11.003326    3.536192    -17.912823    -9.914849    -5.941850    51.660988    -25.365063    18.508478    1.914218    16.044113    11.365057    2.500509    -5.625520    -12.742331    0.799885    0.873899    -0.885258    -78.121368    -39.919373    -48.911396    132.607727    71.788101    -119.342087    2.777984    -2.904032    -16.725052    1.175459    -6.158820    -1.282738
8.509331    91.947433    104.404030    23.374712    50.054276    -99.510666    2.995979    -6.876307    0.903566    19.623806    1.785430    0.414842    5.595538    23.590250    -24.218733    32.798168    4.943274    -21.838919    12.439614    -2.206314    -12.804862    -11.578744    13.174948    -70.260666    37.708153    -10.315532    -79.873726    67.527771    9.384589    -20.471504    6.091511    13.113070    -3.276859    35.272175    4.312428    17.738346    -5.501656    -10.998204    3.889920    -17.803326    -9.905436    -5.895521    51.272984    -25.081938    18.402847    1.914251    16.187746    11.488624    2.687607    -5.697781    -12.433578    0.611613    0.657019    -0.677153    -78.325211    -40.085934    -49.357952    136.026459    70.447197    -122.418671    2.796191    -3.041879    -16.554125    1.160703    -6.028417    -1.266383
8.439675    91.917580    104.510902    23.396616    49.679665    -99.967918    3.044585    -6.861541    0.845188    19.640068    1.809320    0.349578    5.609273    23.548473    -24.153635    32.664879    5.005245    -21.801226    12.494416    -2.251518    -12.823845    -11.720426    12.943192    -70.397705    37.674919    -9.675222    -78.663002    67.442413    9.317876    -20.399416    6.112827    13.167330    -3.345707    35.400822    4.654433    17.705210    -5.517453    -10.982903    4.280641    -17.684843    -9.884162    -5.849686    50.868084    -24.771719    18.286930    1.901481    16.317324    11.659168    2.847555    -5.754385    -12.147379    0.426119    0.441443    -0.471964    -78.508347    -40.247734    -49.773346    138.849060    69.120255    -124.906830    2.805321    -3.176853    -16.404583    1.153977    -5.898353    -1.258794
8.366895    91.891251    104.624771    23.415478    49.292038    -100.440277    3.091697    -6.852814    0.783219    19.655087    1.838415    0.279709    5.623047    23.507853    -24.082994    32.521542    5.073828    -21.760279    12.546180    -2.294058    -12.843821    -11.880891    12.714895    -70.525459    37.613174    -9.013730    -77.441559    67.345245    9.261642    -20.321417    6.138079    13.219936    -3.424245    35.544308    4.988612    17.670773    -5.535264    -10.956996    4.705993    -17.557970    -9.850767    -5.803731    50.450706    -24.438065    18.164938    1.875854    16.426996    11.874431    2.975857    -5.792196    -11.889360    0.248860    0.226674    -0.275741    -78.672997    -40.403969    -50.153629    141.158554    67.845901    -126.897102    2.805526    -3.305041    -16.276325    1.149468    -5.839659    -1.253762
8.289437    91.868172    104.747986    23.432049    48.882317    -100.936951    3.137429    -6.851121    0.715993    19.668449    1.873144    0.203690    5.635377    23.467621    -24.004253    32.365089    5.151294    -21.714405    12.595057    -2.333758    -12.864552    -12.065463    12.485927    -70.644524    37.520145    -8.315084    -76.181976    67.235840    9.214974    -20.237556    6.167567    13.272551    -3.514440    35.706615    5.319605    17.634968    -5.555965    -10.919090    5.176777    -17.421169    -9.803686    -5.755088    50.010799    -24.074400    18.036188    1.837944    16.516081    12.137103    3.074444    -5.809740    -11.654212    0.079936    0.003807    -0.088606    -78.826874    -40.558022    -50.509838    143.097382    66.611816    -128.527588    2.797438    -3.427892    -16.165304    1.132007    -6.004592    -1.235028
8.207888    91.848839    104.879448    23.446299    48.453613    -101.452927    3.181851    -6.857189    0.643752    19.678448    1.912450    0.121432    5.645667    23.428457    -23.916782    32.195335    5.237371    -21.662714    12.640106    -2.369361    -12.885166    -12.274487    12.259468    -70.751205    37.394718    -7.583856    -74.892342    67.115356    9.177668    -20.150555    6.200804    13.324656    -3.615516    35.887428    5.644023    17.598475    -5.579783    -10.869606    5.690573    -17.276047    -9.743533    -5.702150    49.551998    -23.684978    17.903013    1.788998    16.582800    12.442199    3.141578    -5.804916    -11.444017    -0.076018    -0.229230    0.084298    -78.971382    -40.708164    -50.841545    144.715042    65.440521    -129.852707    2.783040    -3.544146    -16.071545    1.122184    -6.120616    -1.224529
8.122505    91.833473    105.018578    23.458281    48.007549    -101.986130    3.226138    -6.871112    0.565974    19.683372    1.955468    0.033090    5.652322    23.389917    -23.819387    32.012615    5.333692    -21.604555    12.681181    -2.400409    -12.904868    -12.509485    12.037702    -70.842384    37.235458    -6.821233    -73.573769    66.984398    9.148439    -20.063313    6.238145    13.376438    -3.727149    36.085693    5.960837    17.563015    -5.606679    -10.808888    6.245003    -17.125132    -9.670894    -5.642517    49.076103    -23.272890    17.768461    1.731934    16.627264    12.782412    3.176623    -5.776124    -11.259151    -0.216241    -0.474755    0.239902    -79.108131    -40.853970    -51.150772    146.064011    64.342247    -130.926453    2.764667    -3.653954    -15.994374    1.116225    -6.193758    -1.218163
8.032749    91.822144    105.166245    23.468302    47.541225    -102.541214    3.272081    -6.892444    0.481977    19.682163    2.000839    -0.062165    5.654359    23.352142    -23.709980    31.813778    5.442062    -21.538351    12.717871    -2.426865    -12.923087    -12.772179    11.821154    -70.915314    37.040245    -6.022253    -72.212509    66.841339    9.125418    -19.976339    6.279360    13.428285    -3.849304    36.302532    6.274203    17.529800    -5.636731    -10.737126    6.841617    -16.968470    -9.586185    -5.573301    48.580734    -22.837334    17.633369    1.669118    16.652521    13.152985    3.179108    -5.722277    -11.097323    -0.340824    -0.736066    0.378296    -79.239433    -40.998043    -51.443062    147.198853    63.313301    -131.801941    2.745092    -3.758800    -15.931684    1.111645    -6.229109    -1.213231
7.939336    91.815147    105.321213    23.476570    47.057709    -103.116562    3.320808    -6.920140    0.392300    19.673136    2.046414    -0.163196    5.650569    23.315399    -23.587553    31.598780    5.564202    -21.463579    12.749509    -2.448647    -12.938853    -13.058842    11.614969    -70.965996    36.810310    -5.194583    -70.811920    66.685204    9.106990    -19.890923    6.324770    13.480076    -3.980352    36.535248    6.584320    17.501472    -5.669114    -10.654402    7.472484    -16.808069    -9.489889    -5.493126    48.070068    -22.382721    17.501339    1.604576    16.661158    13.544290    3.147390    -5.642123    -10.960212    -0.447855    -1.012828    0.497345    -79.365761    -41.142681    -51.721348    148.148010    62.364723    -132.510605    2.726859    -3.857800    -15.881032    1.106785    -6.231846    -1.207932
